<svg width="24" height="24" viewBox="0 0 24 24" fill="none" xmlns="http://www.w3.org/2000/svg">
  <path d="M4 6C4 4.89543 4.89543 4 6 4H18C19.1046 4 20 4.89543 20 6V18C20 19.1046 19.1046 20 18 20H6C4.89543 20 4 19.1046 4 18V6Z" fill="#3d4554" />
  <path d="M4 6C4 4.89543 4.89543 4 6 4H18C19.1046 4 20 4.89543 20 6V18C20 19.1046 19.1046 20 18 20H6C4.89543 20 4 19.1046 4 18V6Z" stroke="#e2e8f0" stroke-width="2" stroke-linecap="round" stroke-linejoin="round"/>
  <path d="M9 12L13 8L17 12" stroke="#ff8a65" stroke-width="2" stroke-linecap="round" stroke-linejoin="round"/>
  <path d="M7 16H17" stroke="#e2e8f0" stroke-width="2" stroke-linecap="round" stroke-linejoin="round"/>
</svg>
